<svg width="93" height="93" viewBox="0 0 93 93" fill="none" xmlns="http://www.w3.org/2000/svg">
    <path
        d="M40.95 0.626144C33.4749 1.58005 26.7455 4.11224 20.5711 8.30943C9.28035 15.9927 2.01332 28.116 0.539097 41.6788C0.313628 43.8468 0.313628 49.154 0.539097 51.3219C2.15207 66.2896 10.928 79.5402 24.1093 86.894C29.4858 89.9118 35.6428 91.8369 41.956 92.4786C45.1125 92.8082 51.0614 92.6001 54.1313 92.0624C60.9994 90.8483 66.8269 88.5069 72.4289 84.6913C82.6791 77.7018 89.686 67.018 91.9233 54.9121C92.461 51.981 92.6344 49.9344 92.6344 46.5004C92.6344 43.0663 92.461 41.0197 91.9233 38.0886C89.4258 24.6125 80.9447 12.8361 68.8908 6.10677C63.6183 3.15833 57.4613 1.21583 51.3216 0.539421C49.0496 0.296608 43.1874 0.34864 40.95 0.626144ZM51.9633 8.25739C60.5658 9.55817 68.0757 13.3911 74.0939 19.5829C83.9105 29.6422 87.466 43.7427 83.5983 57.2188C81.7599 63.636 78.2391 69.4635 73.2788 74.2504C67.3299 80.0085 60.2363 83.4772 51.7899 84.778C49.1883 85.1769 43.8118 85.1769 41.2102 84.778C32.6597 83.4599 25.6182 79.9911 19.5825 74.0943C4.28535 59.196 3.92113 35.0708 18.75 19.7216C25.2193 13.0096 33.7524 8.88177 42.9619 8.01458C45.1819 7.80646 49.7433 7.92786 51.9633 8.25739Z"
        fill="#fff" />
    <path
        d="M30.1449 28.567C30.0755 28.6364 30.0235 37.5338 30.0235 48.3389C30.0235 66.0816 30.0582 67.972 30.301 68.0761C30.8386 68.2842 37.2211 68.1975 37.4466 67.972C37.6027 67.8159 37.6547 66.6019 37.6721 63.6014V59.4216L40.4817 56.4038C42.0253 54.7388 43.3782 53.3513 43.4822 53.3166C43.5863 53.2819 46.5347 56.6119 50.0382 60.7223L56.4033 68.1802L61.0341 68.1455C64.9885 68.0934 65.6649 68.0588 65.7169 67.8333C65.7342 67.6945 64.9538 66.6366 63.9825 65.4919C62.1961 63.4106 56.9063 57.2016 51.5817 50.9405C50.0208 49.1194 48.7547 47.5758 48.7547 47.5064C48.7547 47.4023 61.1035 33.8222 64.9191 29.7117C65.3874 29.2261 65.7169 28.7231 65.6649 28.6364C65.5955 28.5323 63.8785 28.463 61.0688 28.463H56.5941L52.0327 33.4406C49.5352 36.1983 45.286 40.8291 42.615 43.7602L37.7414 49.102L37.6547 38.8172L37.568 28.5497L33.9085 28.4977C31.9139 28.4803 30.2142 28.515 30.1449 28.567Z"
        fill="#fff" />
</svg>