<svg width="80" height="48" viewBox="0 0 80 48" fill="none" xmlns="http://www.w3.org/2000/svg">
<path d="M2.27259 22.9393C1.68681 23.5251 1.68681 24.4749 2.27259 25.0607L11.8185 34.6066C12.4043 35.1924 13.3541 35.1924 13.9399 34.6066C14.5256 34.0208 14.5256 33.0711 13.9399 32.4853L5.45457 24L13.9399 15.5147C14.5256 14.9289 14.5256 13.9792 13.9399 13.3934C13.3541 12.8076 12.4043 12.8076 11.8185 13.3934L2.27259 22.9393ZM76.6666 25.5C77.495 25.5 78.1666 24.8284 78.1666 24C78.1666 23.1716 77.495 22.5 76.6666 22.5V25.5ZM3.33325 25.5L76.6666 25.5V22.5L3.33325 22.5L3.33325 25.5Z" fill="white"/>
</svg>
