<svg width="27" height="33" viewBox="0 0 27 33" fill="none" xmlns="http://www.w3.org/2000/svg">
<path d="M24.5524 8.5H19.7524V6.9C19.7524 5.20261 19.0781 3.57475 17.8779 2.37452C16.6776 1.17428 15.0498 0.5 13.3524 0.5C11.655 0.5 10.0271 1.17428 8.82689 2.37452C7.62665 3.57475 6.95237 5.20261 6.95237 6.9V8.5H2.15237C1.72802 8.5 1.32106 8.66857 1.021 8.96863C0.720939 9.26869 0.552368 9.67565 0.552368 10.1V27.7C0.552368 28.973 1.05808 30.1939 1.95826 31.0941C2.85843 31.9943 4.07933 32.5 5.35237 32.5H21.3524C22.6254 32.5 23.8463 31.9943 24.7465 31.0941C25.6467 30.1939 26.1524 28.973 26.1524 27.7V10.1C26.1524 9.67565 25.9838 9.26869 25.6837 8.96863C25.3837 8.66857 24.9767 8.5 24.5524 8.5ZM10.1524 6.9C10.1524 6.05131 10.4895 5.23737 11.0896 4.63726C11.6897 4.03714 12.5037 3.7 13.3524 3.7C14.2011 3.7 15.015 4.03714 15.6151 4.63726C16.2152 5.23737 16.5524 6.05131 16.5524 6.9V8.5H10.1524V6.9ZM22.9524 27.7C22.9524 28.1243 22.7838 28.5313 22.4837 28.8314C22.1837 29.1314 21.7767 29.3 21.3524 29.3H5.35237C4.92802 29.3 4.52106 29.1314 4.221 28.8314C3.92094 28.5313 3.75237 28.1243 3.75237 27.7V11.7H6.95237V13.3C6.95237 13.7243 7.12094 14.1313 7.421 14.4314C7.72106 14.7314 8.12802 14.9 8.55237 14.9C8.97672 14.9 9.38368 14.7314 9.68374 14.4314C9.9838 14.1313 10.1524 13.7243 10.1524 13.3V11.7H16.5524V13.3C16.5524 13.7243 16.7209 14.1313 17.021 14.4314C17.3211 14.7314 17.728 14.9 18.1524 14.9C18.5767 14.9 18.9837 14.7314 19.2837 14.4314C19.5838 14.1313 19.7524 13.7243 19.7524 13.3V11.7H22.9524V27.7Z" fill="#000"/>
</svg>
