<svg width="24" height="24" viewBox="0 0 24 24" fill="none" xmlns="http://www.w3.org/2000/svg">
<g clip-path="url(#clip0_287_475)">
<path d="M22.3109 6.69419L22.3108 6.69426L12.3411 15.6596L12.0068 15.9602L11.6725 15.6597L1.70031 6.6943L1.70028 6.69434L1.69525 6.6897C1.62971 6.62914 1.55085 6.58037 1.46268 6.54739C1.37447 6.51439 1.27951 6.49817 1.18355 6.50016C1.08758 6.50215 0.99361 6.52229 0.907263 6.5588C0.82095 6.59529 0.744717 6.64707 0.682322 6.70998C0.619986 6.77283 0.572729 6.84546 0.542002 6.92304C0.511301 7.00055 0.497368 7.08225 0.500408 7.16369C0.503448 7.24514 0.523453 7.326 0.560089 7.40172C0.596764 7.47752 0.649712 7.54733 0.717123 7.60628L0.717155 7.60625L0.722248 7.61083L11.5171 17.3161L11.5173 17.3163C11.6459 17.432 11.8207 17.5 12.0067 17.5C12.1928 17.5 12.3676 17.432 12.4962 17.3163L12.4963 17.3161L23.2899 7.61094C23.3558 7.55168 23.4073 7.48195 23.4428 7.40649C23.4783 7.3311 23.4973 7.2508 23.4997 7.17001C23.5021 7.08922 23.4879 7.00826 23.4571 6.93148C23.4263 6.85464 23.3793 6.7827 23.3174 6.72038C23.2555 6.65802 23.18 6.60658 23.0946 6.57016C23.0091 6.53371 22.916 6.51332 22.8209 6.51076C22.7257 6.5082 22.6314 6.52354 22.5435 6.55545C22.4557 6.58735 22.3768 6.63488 22.3109 6.69419Z" fill="#CBCBCB" stroke="#CBCBCB"/>
</g>
<defs>
<clipPath id="clip0_287_475">
<rect width="24" height="24" fill="white"/>
</clipPath>
</defs>
</svg>
