<svg width="32" height="32" viewBox="0 0 32 32" fill="none" xmlns="http://www.w3.org/2000/svg">
<path d="M21.4708 4.01679C21.8968 3.58227 22.4047 3.2365 22.9652 2.99947C23.5256 2.76243 24.1275 2.63882 24.736 2.6358C25.3445 2.63277 25.9475 2.75039 26.5103 2.98184C27.0731 3.21329 27.5844 3.55399 28.0147 3.98425C28.445 4.41451 28.7857 4.92579 29.0172 5.48853C29.2488 6.05128 29.3664 6.65433 29.3635 7.26283C29.3605 7.87133 29.237 8.47321 29 9.03367C28.763 9.59414 28.4173 10.1021 27.9828 10.5281L26.5135 12.0001L20.0001 5.48679L21.4708 4.01679ZM18.8221 6.66679L5.35881 20.1315C4.85073 20.6391 4.48873 21.2743 4.31081 21.9701L2.69281 28.2935C2.65711 28.4335 2.65846 28.5805 2.69672 28.7199C2.73499 28.8593 2.80886 28.9863 2.91107 29.0885C3.01328 29.1907 3.14033 29.2646 3.27972 29.3029C3.41912 29.3411 3.56607 29.3425 3.70614 29.3068L10.0308 27.6908C10.7271 27.5131 11.3628 27.1511 11.8708 26.6428L25.3341 13.1775L18.8221 6.66679Z" fill="white"/>
</svg>
