<svg width="32" height="32" viewBox="0 0 32 32" fill="none" xmlns="http://www.w3.org/2000/svg">
<path d="M17.3337 12.0003H14.667V9.33366H17.3337M17.3337 22.667H14.667V14.667H17.3337M16.0003 2.66699C14.2494 2.66699 12.5156 3.01187 10.8979 3.68193C9.2802 4.35199 7.81035 5.33412 6.57223 6.57223C4.07175 9.07272 2.66699 12.4641 2.66699 16.0003C2.66699 19.5365 4.07175 22.9279 6.57223 25.4284C7.81035 26.6665 9.2802 27.6487 10.8979 28.3187C12.5156 28.9888 14.2494 29.3337 16.0003 29.3337C19.5365 29.3337 22.9279 27.9289 25.4284 25.4284C27.9289 22.9279 29.3337 19.5365 29.3337 16.0003C29.3337 14.2494 28.9888 12.5156 28.3187 10.8979C27.6487 9.2802 26.6665 7.81035 25.4284 6.57223C24.1903 5.33412 22.7204 4.35199 21.1028 3.68193C19.4851 3.01187 17.7513 2.66699 16.0003 2.66699Z" fill="#808080"/>
</svg>
