<svg width="44" height="32" viewBox="0 0 44 32" fill="none" xmlns="http://www.w3.org/2000/svg">
<path d="M1.1259 15.2929C0.735377 15.6834 0.735377 16.3166 1.1259 16.7071L7.48986 23.0711C7.88039 23.4616 8.51355 23.4616 8.90408 23.0711C9.2946 22.6805 9.2946 22.0474 8.90408 21.6569L3.24722 16L8.90408 10.3431C9.2946 9.95262 9.2946 9.31946 8.90408 8.92893C8.51355 8.53841 7.88039 8.53841 7.48986 8.92893L1.1259 15.2929ZM42.1663 17C42.7186 17 43.1663 16.5523 43.1663 16C43.1663 15.4477 42.7186 15 42.1663 15V17ZM1.83301 17L42.1663 17V15L1.83301 15L1.83301 17Z" fill="#707070"/>
</svg>
