<svg width="40" height="32" viewBox="0 0 40 32" fill="none" xmlns="http://www.w3.org/2000/svg">
<path d="M39.0401 16.7071C39.4306 16.3166 39.4306 15.6834 39.0401 15.2929L32.6762 8.92893C32.2856 8.53841 31.6525 8.53841 31.2619 8.92893C30.8714 9.31946 30.8714 9.95262 31.2619 10.3431L36.9188 16L31.2619 21.6569C30.8714 22.0474 30.8714 22.6805 31.2619 23.0711C31.6525 23.4616 32.2856 23.4616 32.6762 23.0711L39.0401 16.7071ZM1.66634 15C1.11406 15 0.66634 15.4477 0.66634 16C0.66634 16.5523 1.11406 17 1.66634 17L1.66634 15ZM38.333 15L1.66634 15L1.66634 17L38.333 17L38.333 15Z" fill="#555555"/>
</svg>
