<svg width="41" height="32" viewBox="0 0 41 32" fill="none" xmlns="http://www.w3.org/2000/svg">
<path d="M39.5411 16.7071C39.9316 16.3166 39.9316 15.6834 39.5411 15.2929L33.1771 8.92893C32.7866 8.53841 32.1534 8.53841 31.7629 8.92893C31.3724 9.31946 31.3724 9.95262 31.7629 10.3431L37.4198 16L31.7629 21.6569C31.3724 22.0474 31.3724 22.6805 31.7629 23.0711C32.1534 23.4616 32.7866 23.4616 33.1771 23.0711L39.5411 16.7071ZM2.16732 15C1.61503 15 1.16732 15.4477 1.16732 16C1.16732 16.5523 1.61503 17 2.16732 17L2.16732 15ZM38.834 15L2.16732 15L2.16732 17L38.834 17L38.834 15Z" fill="#F9F9F9"/>
</svg>
