<svg width="30" height="31" viewBox="0 0 30 31" fill="none" xmlns="http://www.w3.org/2000/svg">
<path fill-rule="evenodd" clip-rule="evenodd" d="M22.7302 20.9849C24.709 18.4337 25.6417 15.2244 25.3383 12.0099C25.0349 8.79549 23.5184 5.81735 21.0971 3.68138C18.6759 1.54541 15.5319 0.412077 12.3047 0.51194C9.0775 0.611803 6.00957 1.93736 3.72503 4.21894C1.43851 6.50211 0.108613 9.57123 0.00636384 12.8009C-0.0958853 16.0305 1.0372 19.1776 3.17473 21.6008C5.31225 24.0241 8.29334 25.5411 11.5105 25.8427C14.7276 26.1443 17.9387 25.2078 20.4894 23.2241L20.5576 23.2955L27.2894 30.0289C27.4369 30.1763 27.6119 30.2933 27.8046 30.373C27.9972 30.4528 28.2037 30.4939 28.4122 30.4939C28.6207 30.4939 28.8272 30.4528 29.0198 30.373C29.2125 30.2933 29.3875 30.1763 29.5349 30.0289C29.6824 29.8814 29.7993 29.7064 29.8791 29.5137C29.9589 29.3211 30 29.1146 30 28.9061C30 28.6976 29.9589 28.4911 29.8791 28.2985C29.7993 28.1058 29.6824 27.9308 29.5349 27.7833L22.8016 21.0516L22.7302 20.9849ZM19.4357 6.46446C20.3317 7.34597 21.0443 8.39615 21.5323 9.55443C22.0204 10.7127 22.2744 11.9562 22.2795 13.2131C22.2846 14.47 22.0408 15.7155 21.5622 16.8777C21.0835 18.0399 20.3795 19.0959 19.4907 19.9847C18.602 20.8734 17.546 21.5774 16.3838 22.0561C15.2216 22.5347 13.9761 22.7785 12.7192 22.7734C11.4623 22.7683 10.2188 22.5143 9.06052 22.0263C7.90224 21.5382 6.85205 20.8256 5.97054 19.9296C4.20892 18.139 3.22619 15.7249 3.23642 13.2131C3.24664 10.7013 4.249 8.29521 6.02515 6.51906C7.8013 4.74291 10.2073 3.74056 12.7192 3.73033C15.231 3.7201 17.6451 4.70283 19.4357 6.46446Z" fill="#000"/>
</svg>
