<svg width="44" height="44" viewBox="0 0 44 44" fill="none" xmlns="http://www.w3.org/2000/svg">
<g clip-path="url(#clip0_62_1147)">
<path d="M22.3334 0C10.1894 0 0.333374 9.856 0.333374 22C0.333374 34.144 10.1894 44 22.3334 44C34.4774 44 44.3334 34.144 44.3334 22C44.3334 9.856 34.4774 0 22.3334 0ZM32.5414 14.96C32.2114 18.436 30.7814 26.884 30.0554 30.778C29.7474 32.428 29.1314 32.978 28.5594 33.044C27.2834 33.154 26.3154 32.208 25.0834 31.394C23.1474 30.118 22.0474 29.326 20.1774 28.094C17.9994 26.664 19.4074 25.872 20.6614 24.596C20.9914 24.266 26.6234 19.14 26.7334 18.678C26.7487 18.608 26.7466 18.5354 26.7275 18.4664C26.7083 18.3974 26.6726 18.3341 26.6234 18.282C26.4914 18.172 26.3154 18.216 26.1614 18.238C25.9634 18.282 22.8834 20.328 16.8774 24.376C15.9974 24.97 15.2054 25.278 14.5014 25.256C13.7094 25.234 12.2134 24.816 11.0914 24.442C9.70537 24.002 8.62737 23.76 8.71537 22.99C8.75937 22.594 9.30937 22.198 10.3434 21.78C16.7674 18.986 21.0354 17.138 23.1694 16.258C29.2854 13.706 30.5394 13.266 31.3754 13.266C31.5514 13.266 31.9694 13.31 32.2334 13.53C32.4534 13.706 32.5194 13.948 32.5414 14.124C32.5194 14.256 32.5634 14.652 32.5414 14.96Z" fill="white"/>
</g>
<defs>
<clipPath id="clip0_62_1147">
<rect width="44" height="44" fill="white"/>
</clipPath>
</defs>
</svg>
